<svg width="24" height="24" viewBox="0 0 24 24" fill="none" xmlns="http://www.w3.org/2000/svg">
  <path d="M20.6208 5.25H19.5042C19.5031 5.25 19.502 5.25044 19.5012 5.25124C19.5004 5.25203 19.5 5.2531 19.5 5.25422V19.5C19.5 19.8978 19.658 20.2794 19.9393 20.5607C20.2206 20.842 20.6022 21 21 21C21.3978 21 21.7794 20.842 22.0607 20.5607C22.342 20.2794 22.5 19.8978 22.5 19.5V7.12922C22.5 6.63082 22.302 6.15283 21.9496 5.80041C21.5972 5.44799 21.1192 5.25 20.6208 5.25V5.25Z" fill="currentColor"/>
  <path d="M16.5 19V2.875C16.5 2.62877 16.4515 2.38495 16.3573 2.15747C16.263 1.92998 16.1249 1.72328 15.9508 1.54917C15.7767 1.37506 15.57 1.23695 15.3425 1.14273C15.115 1.0485 14.8712 1 14.625 1H1.875C1.37772 1 0.900806 1.19754 0.549175 1.54917C0.197544 1.90081 0 2.37772 0 2.875V19.375C0 20.0712 0.276562 20.7389 0.768845 21.2312C1.26113 21.7234 1.92881 22 2.625 22H18.6961C18.7032 22.0001 18.7102 21.9987 18.7168 21.996C18.7234 21.9933 18.7293 21.9894 18.7344 21.9844C18.7394 21.9793 18.7433 21.9734 18.746 21.9668C18.7487 21.9602 18.7501 21.9532 18.75 21.9461C18.75 21.9343 18.7461 21.9229 18.7388 21.9135C18.7316 21.9042 18.7216 21.8975 18.7102 21.8945C18.0757 21.7205 17.5159 21.3431 17.1167 20.8202C16.7174 20.2973 16.5008 19.6579 16.5 19V19ZM3 5.5C3 5.30109 3.07902 5.11032 3.21967 4.96967C3.36032 4.82902 3.55109 4.75 3.75 4.75H6.75C6.94891 4.75 7.13968 4.82902 7.28033 4.96967C7.42098 5.11032 7.5 5.30109 7.5 5.5V8.5C7.5 8.69891 7.42098 8.88968 7.28033 9.03033C7.13968 9.17098 6.94891 9.25 6.75 9.25H3.75C3.55109 9.25 3.36032 9.17098 3.21967 9.03033C3.07902 8.88968 3 8.69891 3 8.5V5.5ZM12.75 18.25H3.77109C3.3675 18.25 3.02109 17.9397 3.00094 17.5361C2.99605 17.4347 3.01181 17.3333 3.04724 17.2382C3.08268 17.1431 3.13707 17.0561 3.2071 16.9826C3.27714 16.9091 3.36137 16.8506 3.45469 16.8106C3.54801 16.7706 3.64848 16.75 3.75 16.75H12.7289C13.1325 16.75 13.4789 17.0603 13.4991 17.4639C13.5039 17.5653 13.4882 17.6667 13.4528 17.7618C13.4173 17.8569 13.3629 17.9439 13.2929 18.0174C13.2229 18.0909 13.1386 18.1494 13.0453 18.1894C12.952 18.2294 12.8515 18.25 12.75 18.25V18.25ZM12.75 15.25H3.77109C3.3675 15.25 3.02109 14.9397 3.00094 14.5361C2.99605 14.4347 3.01181 14.3333 3.04724 14.2382C3.08268 14.1431 3.13707 14.0561 3.2071 13.9826C3.27714 13.9091 3.36137 13.8506 3.45469 13.8106C3.54801 13.7706 3.64848 13.75 3.75 13.75H12.7289C13.1325 13.75 13.4789 14.0603 13.4991 14.4639C13.5039 14.5653 13.4882 14.6667 13.4528 14.7618C13.4173 14.8569 13.3629 14.9439 13.2929 15.0174C13.2229 15.0909 13.1386 15.1494 13.0453 15.1894C12.952 15.2294 12.8515 15.25 12.75 15.25V15.25ZM12.75 12.25H3.77109C3.3675 12.25 3.02109 11.9397 3.00094 11.5361C2.99605 11.4347 3.01181 11.3333 3.04724 11.2382C3.08268 11.1431 3.13707 11.0561 3.2071 10.9826C3.27714 10.9091 3.36137 10.8506 3.45469 10.8106C3.54801 10.7706 3.64848 10.75 3.75 10.75H12.7289C13.1325 10.75 13.4789 11.0603 13.4991 11.4639C13.5039 11.5653 13.4882 11.6667 13.4528 11.7618C13.4173 11.8569 13.3629 11.9439 13.2929 12.0174C13.2229 12.0909 13.1386 12.1494 13.0453 12.1894C12.952 12.2294 12.8515 12.25 12.75 12.25V12.25ZM12.75 9.25H9.77109C9.3675 9.25 9.02109 8.93969 9.00094 8.53609C8.99605 8.43469 9.01181 8.33334 9.04724 8.2382C9.08268 8.14307 9.13707 8.05611 9.2071 7.98261C9.27714 7.90911 9.36137 7.8506 9.45469 7.81062C9.54801 7.77063 9.64848 7.75001 9.75 7.75H12.7289C13.1325 7.75 13.4789 8.06031 13.4991 8.46391C13.5039 8.56531 13.4882 8.66666 13.4528 8.7618C13.4173 8.85693 13.3629 8.94389 13.2929 9.01739C13.2229 9.09089 13.1386 9.1494 13.0453 9.18938C12.952 9.22937 12.8515 9.24999 12.75 9.25V9.25ZM12.75 6.25H9.77109C9.3675 6.25 9.02109 5.93969 9.00094 5.53609C8.99605 5.43469 9.01181 5.33334 9.04724 5.2382C9.08268 5.14307 9.13707 5.05611 9.2071 4.98261C9.27714 4.90911 9.36137 4.8506 9.45469 4.81062C9.54801 4.77063 9.64848 4.75001 9.75 4.75H12.7289C13.1325 4.75 13.4789 5.06031 13.4991 5.46391C13.5039 5.56531 13.4882 5.66666 13.4528 5.7618C13.4173 5.85693 13.3629 5.94389 13.2929 6.01739C13.2229 6.09089 13.1386 6.1494 13.0453 6.18938C12.952 6.22937 12.8515 6.24999 12.75 6.25Z" fill="currentColor"/>
  </svg>
  